<svg width="1012" height="506" viewBox="0 0 1012 506" fill="none" xmlns="http://www.w3.org/2000/svg">
<rect width="1012" height="506" fill="#E5E7EB"/>
<g filter="url(#filter0_di_2763_29293)">
<path d="M158.69 81.1453L169.944 83.9977L156.853 135.647C150.811 135.278 146.459 134.632 141.867 133.468C128.126 129.97 122.53 122.008 125.523 110.198C128.407 98.8199 137.868 93.359 149.629 96.3399C151.454 96.8025 152.808 97.2987 154.378 98.1554L158.69 81.1453ZM152.414 107.563C151.205 106.798 150.155 106.379 148.765 106.027C143.073 104.584 138.904 107.227 137.359 113.32C135.856 119.252 138.169 123.324 143.933 124.785C145.179 125.101 146.21 125.288 147.872 125.48L152.414 107.563Z" fill="#D7DAE0"/>
<path d="M183.83 106.484L177.275 132.345C175.018 141.25 173.266 145.364 170.375 148.561C167.65 151.648 164.679 153.277 159.084 154.49L149.891 146.916C155.444 145.863 158.366 144.43 160.692 141.702C163.107 138.921 164.55 135.357 167.012 125.645L172.59 103.636L183.83 106.485L183.83 106.484ZM175.973 85.5261L187.227 88.3785L184.325 99.8287L173.071 96.9763L175.973 85.5261Z" fill="#D7DAE0"/>
<path d="M361.256 306.325L369.729 305.079L375.446 343.968C371.226 345.428 368.079 346.221 364.622 346.73C354.271 348.24 348.203 344.402 346.896 335.51C345.636 326.943 350.534 320.543 359.389 319.241C360.763 319.039 361.826 318.994 363.138 319.132L361.256 306.325ZM364.465 326.097C363.425 325.918 362.592 325.93 361.545 326.084C357.259 326.714 355.168 329.696 355.843 334.283C356.499 338.75 359.228 340.868 363.568 340.23C364.506 340.092 365.262 339.927 366.448 339.587L364.465 326.097Z" fill="#D7DAE0"/>
<path d="M385.559 316.461L388.421 335.933C389.406 342.638 389.379 345.936 388.315 348.933C387.334 351.808 385.771 353.759 382.305 356.171L373.896 353.616C377.381 351.326 378.965 349.522 379.776 347.004C380.634 344.426 380.607 341.59 379.532 334.277L377.096 317.705L385.559 316.461L385.559 316.461ZM374.269 304.412L382.743 303.166L384.01 311.788L375.537 313.033L374.269 304.412Z" fill="#D7DAE0"/>
<path d="M434.794 87.668L455.122 84.6799L468.835 177.973C458.713 181.475 451.162 183.378 442.869 184.597C418.037 188.221 403.481 179.014 400.346 157.683C397.324 137.131 409.072 121.777 430.316 118.654C433.612 118.17 436.161 118.061 439.311 118.393L434.794 87.668ZM442.494 135.1C439.999 134.672 437.999 134.701 435.487 135.07C425.206 136.581 420.191 143.734 421.808 154.739C423.383 165.454 429.93 170.536 440.342 169.005C442.592 168.675 444.405 168.279 447.251 167.463L442.494 135.1Z" fill="#D7DAE0"/>
<path d="M493.095 111.985L499.961 158.695C502.326 174.781 502.26 182.694 499.708 189.883C497.354 196.779 493.606 201.461 485.289 207.245L465.118 201.118C473.478 195.623 477.278 191.295 479.224 185.256C481.281 179.071 481.216 172.267 478.637 154.725L472.794 114.97L493.095 111.985L493.095 111.985ZM466.013 83.0789L486.341 80.0909L489.381 100.773L469.053 103.761L466.013 83.0789Z" fill="#D7DAE0"/>
<path d="M97.5997 347.176L112.684 341.607L138.17 410.646C130.982 414.958 125.506 417.632 119.352 419.904C100.921 426.686 88.297 422.007 82.4697 406.221C76.8552 391.012 83.384 377.386 99.1479 371.567C101.594 370.664 103.529 370.168 105.993 369.913L97.5997 347.176ZM111.115 382.159C109.135 382.235 107.608 382.581 105.745 383.269C98.1153 386.085 95.424 392.359 98.4305 400.503C101.358 408.433 107.187 411.256 114.913 408.403C116.583 407.787 117.907 407.192 119.955 406.108L111.115 382.159Z" fill="#D7DAE0"/>
<path d="M146.145 356.324L158.906 390.891C163.3 402.795 164.521 408.849 163.722 414.752C163.027 420.4 160.909 424.582 155.47 430.345L139.042 428.925C144.56 423.377 146.774 419.457 147.294 414.53C147.876 409.473 146.733 404.287 141.941 391.305L131.08 361.885L146.146 356.324L146.145 356.324ZM120.766 338.624L135.85 333.055L141.5 348.361L126.416 353.929L120.766 338.624Z" fill="#D7DAE0"/>
<path d="M878.829 338.911L897.471 336.235L909.802 422.12C900.514 425.307 893.587 427.03 885.982 428.122C863.21 431.367 849.889 422.844 847.07 403.207C844.353 384.287 855.162 370.202 874.644 367.405C877.667 366.971 880.004 366.879 882.89 367.196L878.829 338.911ZM885.766 382.58C883.48 382.177 881.646 382.196 879.343 382.527C869.914 383.881 865.298 390.444 866.752 400.575C868.169 410.439 874.157 415.139 883.706 413.768C885.769 413.471 887.432 413.114 890.043 412.373L885.766 382.58Z" fill="#D7DAE0"/>
<path d="M932.211 361.493L938.385 404.495C940.511 419.304 940.43 426.584 938.073 433.189C935.897 439.526 932.449 443.82 924.81 449.112L906.335 443.402C914.013 438.376 917.507 434.408 919.307 428.858C921.208 423.175 921.166 416.915 918.848 400.765L913.593 364.167L932.211 361.493L932.211 361.493ZM907.46 334.8L926.101 332.124L928.835 351.164L910.193 353.841L907.46 334.8Z" fill="#D7DAE0"/>
<path d="M747.79 198.519L756.891 198.989L754.736 240.762C750.029 241.404 746.579 241.575 742.865 241.383C731.749 240.798 726.219 235.526 726.712 225.975C727.186 216.773 733.633 211.117 743.144 211.608C744.621 211.684 745.739 211.858 747.08 212.277L747.79 198.519ZM747.01 219.821C745.962 219.417 745.09 219.256 743.965 219.198C739.362 218.961 736.558 221.635 736.303 226.563C736.056 231.361 738.461 234.141 743.123 234.381C744.131 234.433 744.954 234.419 746.263 234.312L747.01 219.821Z" fill="#D7DAE0"/>
<path d="M771.032 214.171L769.953 235.086C769.581 242.289 768.864 245.724 767.128 248.629C765.504 251.424 763.466 253.134 759.345 254.926L751.105 250.505C755.219 248.843 757.249 247.291 758.621 244.834C760.054 242.323 760.618 239.357 761.023 231.503L761.942 213.702L771.032 214.171L771.032 214.171ZM761.768 199.24L770.87 199.71L770.392 208.971L761.29 208.501L761.768 199.24Z" fill="#D7DAE0"/>
<path d="M885.751 54.7137L898.564 51.8237L911.827 110.627C905.545 113.35 900.824 114.929 895.597 116.108C879.944 119.621 870.219 114.458 867.186 101.013C864.265 88.0591 871.009 77.7028 884.398 74.6826C886.476 74.2139 888.096 74.0206 890.119 74.0797L885.751 54.7137ZM892.959 84.5754C891.347 84.4231 890.074 84.5385 888.491 84.8956C882.011 86.3573 879.16 91.1598 880.725 98.0964C882.248 104.85 886.668 107.772 893.231 106.292C894.648 105.972 895.785 105.632 897.56 104.973L892.959 84.5754Z" fill="#D7DAE0"/>
<path d="M924.093 67.3881L930.734 96.8299C933.021 106.969 933.362 112.016 932.084 116.722C930.918 121.232 928.756 124.398 923.734 128.489L910.58 125.56C915.642 121.652 917.855 118.709 918.802 114.766C919.814 110.723 919.443 106.389 916.949 95.3326L911.297 70.2747L924.093 67.3883L924.093 67.3881ZM905.429 50.2752L918.241 47.3852L921.182 60.4213L908.369 63.3113L905.429 50.2752Z" fill="#D7DAE0"/>
<path d="M604.621 348.576L618.658 351.582L604.864 416.002C597.382 415.824 591.975 415.227 586.248 414C569.108 410.312 561.826 400.732 564.98 386.002C568.019 371.811 579.457 364.627 594.126 367.768C596.402 368.255 598.098 368.806 600.078 369.792L604.621 348.576ZM598.084 381.507C596.556 380.617 595.239 380.148 593.505 379.777C586.406 378.256 581.376 381.715 579.749 389.314C578.165 396.713 581.21 401.637 588.4 403.177C589.953 403.51 591.237 403.693 593.3 403.853L598.084 381.507Z" fill="#D7DAE0"/>
<path d="M636.852 378.725L629.945 410.98C627.567 422.087 625.592 427.251 622.167 431.334C618.943 435.274 615.346 437.424 608.49 439.181L596.781 430.246C603.595 428.69 607.139 426.784 609.887 423.305C612.743 419.759 614.361 415.289 616.955 403.176L622.833 375.724L636.852 378.726L636.852 378.725ZM626.178 353.192L640.215 356.198L637.157 370.479L623.12 367.474L626.178 353.192Z" fill="#D7DAE0"/>
</g>
<defs>
<filter id="filter0_di_2763_29293" x="65.1015" y="47" width="881.916" height="414.121" filterUnits="userSpaceOnUse" color-interpolation-filters="sRGB">
<feFlood flood-opacity="0" result="BackgroundImageFix"/>
<feColorMatrix in="SourceAlpha" type="matrix" values="0 0 0 0 0 0 0 0 0 0 0 0 0 0 0 0 0 0 127 0" result="hardAlpha"/>
<feOffset dx="2" dy="2"/>
<feComposite in2="hardAlpha" operator="out"/>
<feColorMatrix type="matrix" values="0 0 0 0 1 0 0 0 0 1 0 0 0 0 1 0 0 0 0.27 0"/>
<feBlend mode="normal" in2="BackgroundImageFix" result="effect1_dropShadow_2763_29293"/>
<feBlend mode="normal" in="SourceGraphic" in2="effect1_dropShadow_2763_29293" result="shape"/>
<feColorMatrix in="SourceAlpha" type="matrix" values="0 0 0 0 0 0 0 0 0 0 0 0 0 0 0 0 0 0 127 0" result="hardAlpha"/>
<feOffset dx="2" dy="2"/>
<feComposite in2="hardAlpha" operator="arithmetic" k2="-1" k3="1"/>
<feColorMatrix type="matrix" values="0 0 0 0 0 0 0 0 0 0 0 0 0 0 0 0 0 0 0.05 0"/>
<feBlend mode="normal" in2="shape" result="effect2_innerShadow_2763_29293"/>
</filter>
</defs>
</svg>
