<svg width="474" height="100" viewBox="0 0 474 100" fill="none" xmlns="http://www.w3.org/2000/svg">
<rect width="474" height="100" fill="#111827"/>
<path d="M73.608 46.4489H66.5057C66.411 45.7197 66.2169 45.0616 65.9233 44.4744C65.6297 43.8873 65.2415 43.3854 64.7585 42.9688C64.2756 42.5521 63.7027 42.2348 63.0398 42.017C62.3864 41.7898 61.6619 41.6761 60.8665 41.6761C59.4555 41.6761 58.2386 42.0218 57.2159 42.7131C56.2027 43.4044 55.4214 44.4034 54.8722 45.7102C54.3324 47.017 54.0625 48.5985 54.0625 50.4545C54.0625 52.3864 54.3371 54.0057 54.8864 55.3125C55.4451 56.6098 56.2263 57.59 57.2301 58.2528C58.2434 58.9062 59.4413 59.233 60.8239 59.233C61.6004 59.233 62.3059 59.1335 62.9403 58.9347C63.5843 58.7358 64.1477 58.447 64.6307 58.0682C65.1231 57.6799 65.5256 57.2112 65.8381 56.6619C66.16 56.1032 66.3826 55.4735 66.5057 54.7727L73.608 54.8153C73.4848 56.1032 73.1108 57.3722 72.4858 58.6222C71.8703 59.8722 71.0227 61.0133 69.9432 62.0455C68.8636 63.0682 67.5473 63.8826 65.9943 64.4886C64.4508 65.0947 62.6799 65.3977 60.6818 65.3977C58.0492 65.3977 55.6913 64.8201 53.608 63.6648C51.5341 62.5 49.8958 60.8049 48.6932 58.5795C47.4905 56.3542 46.8892 53.6458 46.8892 50.4545C46.8892 47.2538 47.5 44.5407 48.7216 42.3153C49.9432 40.09 51.5956 38.3996 53.679 37.2443C55.7623 36.089 58.0966 35.5114 60.6818 35.5114C62.4432 35.5114 64.072 35.7576 65.5682 36.25C67.0644 36.733 68.3807 37.4432 69.517 38.3807C70.6534 39.3087 71.5767 40.4498 72.2869 41.804C72.9972 43.1581 73.4375 44.7064 73.608 46.4489ZM105.089 50.4545C105.089 53.6553 104.473 56.3684 103.242 58.5938C102.011 60.8191 100.344 62.5095 98.2422 63.6648C96.1494 64.8201 93.8009 65.3977 91.1967 65.3977C88.5831 65.3977 86.2299 64.8153 84.1371 63.6506C82.0443 62.4858 80.3823 60.7955 79.1513 58.5795C77.9297 56.3542 77.3189 53.6458 77.3189 50.4545C77.3189 47.2538 77.9297 44.5407 79.1513 42.3153C80.3823 40.09 82.0443 38.3996 84.1371 37.2443C86.2299 36.089 88.5831 35.5114 91.1967 35.5114C93.8009 35.5114 96.1494 36.089 98.2422 37.2443C100.344 38.3996 102.011 40.09 103.242 42.3153C104.473 44.5407 105.089 47.2538 105.089 50.4545ZM97.9013 50.4545C97.9013 48.5606 97.6314 46.9602 97.0916 45.6534C96.5613 44.3466 95.7943 43.357 94.7905 42.6847C93.7962 42.0123 92.5982 41.6761 91.1967 41.6761C89.8047 41.6761 88.6068 42.0123 87.603 42.6847C86.5992 43.357 85.8274 44.3466 85.2876 45.6534C84.7573 46.9602 84.4922 48.5606 84.4922 50.4545C84.4922 52.3485 84.7573 53.9489 85.2876 55.2557C85.8274 56.5625 86.5992 57.5521 87.603 58.2244C88.6068 58.8968 89.8047 59.233 91.1967 59.233C92.5982 59.233 93.7962 58.8968 94.7905 58.2244C95.7943 57.5521 96.5613 56.5625 97.0916 55.2557C97.6314 53.9489 97.9013 52.3485 97.9013 50.4545ZM119.947 65H109.194V35.9091H119.933C122.897 35.9091 125.449 36.4915 127.589 37.6562C129.738 38.8116 131.396 40.4782 132.56 42.6562C133.725 44.8248 134.308 47.4195 134.308 50.4403C134.308 53.4706 133.725 56.0748 132.56 58.2528C131.405 60.4309 129.753 62.1023 127.603 63.267C125.453 64.4223 122.901 65 119.947 65ZM116.225 59.0057H119.677C121.306 59.0057 122.683 58.7311 123.81 58.1818C124.947 57.6231 125.804 56.7188 126.381 55.4688C126.969 54.2093 127.262 52.5331 127.262 50.4403C127.262 48.3475 126.969 46.6809 126.381 45.4403C125.794 44.1903 124.928 43.2907 123.782 42.7415C122.646 42.1828 121.244 41.9034 119.577 41.9034H116.225V59.0057ZM138.413 65V35.9091H158.697V41.6193H145.444V47.5852H157.66V53.3097H145.444V59.2898H158.697V65H138.413ZM178.825 44.6307C178.73 43.589 178.308 42.7794 177.56 42.2017C176.822 41.6146 175.766 41.321 174.393 41.321C173.484 41.321 172.726 41.4394 172.12 41.6761C171.514 41.9129 171.059 42.2396 170.756 42.6562C170.453 43.0634 170.297 43.5322 170.288 44.0625C170.269 44.4981 170.354 44.8816 170.543 45.2131C170.742 45.5445 171.026 45.8381 171.396 46.0938C171.774 46.34 172.229 46.5578 172.759 46.7472C173.29 46.9366 173.886 47.1023 174.549 47.2443L177.049 47.8125C178.488 48.125 179.757 48.5417 180.856 49.0625C181.964 49.5833 182.892 50.2036 183.64 50.9233C184.397 51.643 184.97 52.4716 185.359 53.4091C185.747 54.3466 185.946 55.3977 185.955 56.5625C185.946 58.3996 185.482 59.9763 184.563 61.2926C183.645 62.6089 182.324 63.6174 180.6 64.3182C178.886 65.0189 176.817 65.3693 174.393 65.3693C171.959 65.3693 169.838 65.0047 168.029 64.2756C166.22 63.5464 164.814 62.4384 163.81 60.9517C162.807 59.465 162.29 57.5852 162.262 55.3125H168.995C169.052 56.25 169.303 57.0312 169.748 57.6562C170.193 58.2812 170.804 58.7547 171.58 59.0767C172.366 59.3987 173.275 59.5597 174.308 59.5597C175.254 59.5597 176.059 59.4318 176.722 59.1761C177.395 58.9205 177.911 58.5653 178.271 58.1108C178.63 57.6562 178.815 57.1354 178.825 56.5483C178.815 55.9991 178.645 55.5303 178.313 55.142C177.982 54.7443 177.47 54.4034 176.779 54.1193C176.097 53.8258 175.226 53.5559 174.165 53.3097L171.126 52.5994C168.607 52.0218 166.623 51.089 165.174 49.8011C163.725 48.5038 163.005 46.7519 163.015 44.5455C163.005 42.7462 163.488 41.1695 164.464 39.8153C165.439 38.4612 166.789 37.4053 168.512 36.6477C170.236 35.8902 172.201 35.5114 174.407 35.5114C176.661 35.5114 178.616 35.8949 180.273 36.6619C181.94 37.4195 183.233 38.4848 184.151 39.858C185.07 41.2311 185.539 42.822 185.558 44.6307H178.825ZM214.265 35.9091V65H208.299L196.722 48.2102H196.538V65H189.506V35.9091H195.558L207.006 52.6705H207.248V35.9091H214.265ZM225.717 35.9091V65H218.686V35.9091H225.717ZM230.131 65V35.9091H242.148C244.326 35.9091 246.206 36.3352 247.788 37.1875C249.379 38.0303 250.605 39.2093 251.467 40.7244C252.328 42.2301 252.759 43.982 252.759 45.9801C252.759 47.9877 252.319 49.7443 251.438 51.25C250.567 52.7462 249.322 53.9062 247.702 54.7301C246.083 55.554 244.161 55.9659 241.935 55.9659H234.521V50.4261H240.629C241.689 50.4261 242.575 50.2415 243.285 49.8722C244.004 49.5028 244.549 48.9867 244.918 48.3239C245.288 47.6515 245.472 46.8703 245.472 45.9801C245.472 45.0805 245.288 44.304 244.918 43.6506C244.549 42.9877 244.004 42.4763 243.285 42.1165C242.565 41.7566 241.68 41.5767 240.629 41.5767H237.163V65H230.131ZM256.225 65V35.9091H268.242C270.42 35.9091 272.3 36.3352 273.881 37.1875C275.472 38.0303 276.699 39.2093 277.56 40.7244C278.422 42.2301 278.853 43.982 278.853 45.9801C278.853 47.9877 278.413 49.7443 277.532 51.25C276.661 52.7462 275.415 53.9062 273.796 54.7301C272.177 55.554 270.254 55.9659 268.029 55.9659H260.614V50.4261H266.722C267.783 50.4261 268.668 50.2415 269.379 49.8722C270.098 49.5028 270.643 48.9867 271.012 48.3239C271.381 47.6515 271.566 46.8703 271.566 45.9801C271.566 45.0805 271.381 44.304 271.012 43.6506C270.643 42.9877 270.098 42.4763 269.379 42.1165C268.659 41.7566 267.773 41.5767 266.722 41.5767H263.256V65H256.225ZM282.319 65V35.9091H302.603V41.6193H289.35V47.5852H301.566V53.3097H289.35V59.2898H302.603V65H282.319ZM306.055 41.6193V35.9091H330.643V41.6193H321.822V65H314.89V41.6193H306.055ZM336.616 65.4119C335.593 65.4119 334.717 65.0521 333.988 64.3324C333.268 63.6127 332.913 62.7415 332.923 61.7188C332.913 60.715 333.268 59.858 333.988 59.1477C334.717 58.428 335.593 58.0682 336.616 58.0682C337.582 58.0682 338.434 58.428 339.173 59.1477C339.921 59.858 340.299 60.715 340.309 61.7188C340.299 62.4006 340.12 63.0208 339.769 63.5795C339.428 64.1383 338.978 64.5833 338.42 64.9148C337.871 65.2462 337.269 65.4119 336.616 65.4119ZM355.65 65H344.897V35.9091H355.636C358.6 35.9091 361.152 36.4915 363.292 37.6562C365.442 38.8116 367.099 40.4782 368.263 42.6562C369.428 44.8248 370.011 47.4195 370.011 50.4403C370.011 53.4706 369.428 56.0748 368.263 58.2528C367.108 60.4309 365.456 62.1023 363.306 63.267C361.156 64.4223 358.604 65 355.65 65ZM351.928 59.0057H355.38C357.009 59.0057 358.387 58.7311 359.513 58.1818C360.65 57.6231 361.507 56.7188 362.085 55.4688C362.672 54.2093 362.965 52.5331 362.965 50.4403C362.965 48.3475 362.672 46.6809 362.085 45.4403C361.497 44.1903 360.631 43.2907 359.485 42.7415C358.349 42.1828 356.947 41.9034 355.281 41.9034H351.928V59.0057ZM374.116 65V35.9091H394.4V41.6193H381.147V47.5852H393.363V53.3097H381.147V59.2898H394.4V65H374.116ZM405.408 35.9091L411.914 57.2159H412.156L418.661 35.9091H426.531L416.715 65H407.354L397.539 35.9091H405.408Z" fill="white"/>
</svg>
