<svg width="1012" height="506" viewBox="0 0 1012 506" fill="none" xmlns="http://www.w3.org/2000/svg">
<rect width="1012" height="506" fill="#EAF3FD"/>
<g opacity="0.1">
<path d="M104.703 383.41L57 422.422L158.406 385.14L133.896 380.764L104.703 383.41Z" fill="#409AD5"/>
<path d="M88.4919 432.595L128.588 430.091L140.81 415.683L158.405 385.139L88.4919 432.595Z" fill="#71C471"/>
<path d="M158.405 385.14L95.1289 364.699L104.703 383.41L158.405 385.14Z" fill="#409AD5"/>
<path d="M137.918 448.562L158.406 385.14L128.589 430.091L137.918 448.562Z" fill="#71C471"/>
<path d="M113.609 117.082L104.051 162.694L146.041 92.6037L129.537 101.665L113.609 117.082Z" fill="#409AD5"/>
<path d="M127.418 153.731L149.831 133.22L150.185 118.937L146.041 92.6039L127.418 153.731Z" fill="#71C471"/>
<path d="M146.041 92.6039L99.0897 110.614L113.609 117.082L146.041 92.6039Z" fill="#409AD5"/>
<path d="M164.092 139.663L146.041 92.6037L149.831 133.22L164.092 139.663Z" fill="#71C471"/>
<path d="M888.614 90.0003L867.086 142.289L932.736 68L911.037 75.145L888.614 90.0003Z" fill="#409AD5"/>
<path d="M896.951 136.785L928.241 117.293L931.834 100.333L932.736 68.0001L896.951 136.785Z" fill="#71C471"/>
<path d="M932.736 68.0001L872.729 79.061L888.613 90.0005L932.736 68.0001Z" fill="#409AD5"/>
<path d="M943.823 128.145L932.736 68L928.241 117.293L943.823 128.145Z" fill="#71C471"/>
<path d="M343.24 300.715L327.01 332.719L372.251 289L358.167 292.437L343.24 300.715Z" fill="#409AD5"/>
<path d="M346.178 330.728L366.946 319.959L370.066 309.409L372.251 289L346.178 330.728Z" fill="#71C471"/>
<path d="M372.251 289L333.737 293.001L343.24 300.715L372.251 289Z" fill="#409AD5"/>
<path d="M376.262 327.602L372.251 289L366.946 319.959L376.262 327.602Z" fill="#71C471"/>
<path d="M465.556 94.1558L427 153.936L525.159 77L496.684 80.891L465.556 94.1558Z" fill="#409AD5"/>
<path d="M465.202 153.936L508.357 136.957L516.669 116.794L525.159 77.0001L465.202 153.936Z" fill="#71C471"/>
<path d="M525.159 77.0001L448.4 77.0001L465.556 94.1558L525.159 77.0001Z" fill="#409AD5"/>
<path d="M525.159 153.936V76.9999L508.357 136.957L525.159 153.936Z" fill="#71C471"/>
<path d="M566.365 409.064L542.484 456.158L609.055 391.826L588.33 396.883L566.365 409.064Z" fill="#409AD5"/>
<path d="M570.689 453.227L601.248 437.382L605.839 421.858L609.054 391.826L570.689 453.227Z" fill="#71C471"/>
<path d="M609.054 391.826L552.382 397.714L566.364 409.064L609.054 391.826Z" fill="#409AD5"/>
<path d="M614.956 448.629L609.055 391.826L601.249 437.382L614.956 448.629Z" fill="#71C471"/>
<path d="M696.361 228.537L666 253.353L730.532 229.647L714.937 226.859L696.361 228.537Z" fill="#409AD5"/>
<path d="M686.037 259.831L711.551 258.245L719.33 249.079L730.531 229.647L686.037 259.831Z" fill="#71C471"/>
<path d="M730.531 229.647L690.271 216.629L696.36 228.537L730.531 229.647Z" fill="#409AD5"/>
<path d="M717.484 270L730.532 229.647L711.551 258.245L717.484 270Z" fill="#71C471"/>
<path d="M883.239 382.568L844 443.406L943.897 365.108L914.918 369.068L883.239 382.568Z" fill="#409AD5"/>
<path d="M882.878 443.406L926.797 426.126L935.256 405.607L943.896 365.108L882.878 443.406Z" fill="#71C471"/>
<path d="M943.896 365.108H865.779L883.238 382.568L943.896 365.108Z" fill="#409AD5"/>
<path d="M943.897 443.406V365.108L926.798 426.126L943.897 443.406Z" fill="#71C471"/>
</g>
</svg>
